<mxfile host="65bd71144e">
    <diagram id="RGC1KIMOTgwWbZyLCLCU" name="Page-1">
        <mxGraphModel dx="1173" dy="606" grid="0" gridSize="5" guides="1" tooltips="1" connect="1" arrows="1" fold="1" page="0" pageScale="1" pageWidth="850" pageHeight="1100" background="#ffffff" math="0" shadow="0">
            <root>
                <mxCell id="0"/>
                <mxCell id="1" parent="0"/>
                <mxCell id="209" value="&lt;font style=&quot;font-size: 39px;&quot;&gt;Data Path&lt;/font&gt;" style="rounded=0;whiteSpace=wrap;html=1;comic=1;strokeWidth=4;fontFamily=Comic Sans MS;fontSize=17;fillColor=#EBF4FF;strokeColor=#0000FF;fontColor=#0000FF;verticalAlign=bottom;fontStyle=1" parent="1" vertex="1">
                    <mxGeometry x="-142" y="130" width="1364" height="489" as="geometry"/>
                </mxCell>
                <mxCell id="87" value="" style="group" parent="1" vertex="1" connectable="0">
                    <mxGeometry x="336" y="152.66" width="336" height="267.34000000000003" as="geometry"/>
                </mxCell>
                <mxCell id="4" value="&lt;pre&gt;&lt;font face=&quot;Comic Sans MS&quot;&gt;&lt;span style=&quot;font-size: 24px;&quot;&gt;Register&lt;/span&gt;&lt;/font&gt;&lt;/pre&gt;" style="whiteSpace=wrap;html=1;fillColor=none;strokeColor=#000000;strokeWidth=4;imageAspect=0;comic=1;enumerate=0;treeMoving=0;treeFolding=0;resizeHeight=1;resizeWidth=1;autosize=0;perimeter=parallelogramPerimeter;fontFamily=Comic Sans MS;fontColor=#000000;align=center;verticalAlign=middle;fontStyle=1" parent="87" vertex="1">
                    <mxGeometry x="56" y="43.34" width="224" height="224" as="geometry"/>
                </mxCell>
                <mxCell id="9" value="" style="endArrow=none;html=1;fontFamily=Comic Sans MS;fontSize=24;fontColor=#000000;strokeColor=#000000;strokeWidth=3;comic=1;fontStyle=1" parent="87" edge="1">
                    <mxGeometry width="50" height="50" relative="1" as="geometry">
                        <mxPoint y="71.34" as="sourcePoint"/>
                        <mxPoint x="56" y="71.34" as="targetPoint"/>
                    </mxGeometry>
                </mxCell>
                <mxCell id="10" value="" style="endArrow=none;html=1;fontFamily=Comic Sans MS;fontSize=24;fontColor=#000000;strokeColor=#000000;strokeWidth=3;comic=1;fontStyle=1" parent="87" edge="1">
                    <mxGeometry width="50" height="50" relative="1" as="geometry">
                        <mxPoint y="113.34" as="sourcePoint"/>
                        <mxPoint x="56" y="113.34" as="targetPoint"/>
                    </mxGeometry>
                </mxCell>
                <mxCell id="11" value="" style="endArrow=none;html=1;fontFamily=Comic Sans MS;fontSize=24;fontColor=#000000;strokeColor=#000000;strokeWidth=3;comic=1;fontStyle=1" parent="87" edge="1">
                    <mxGeometry width="50" height="50" relative="1" as="geometry">
                        <mxPoint y="182.84" as="sourcePoint"/>
                        <mxPoint x="56" y="182.84" as="targetPoint"/>
                    </mxGeometry>
                </mxCell>
                <mxCell id="12" value="" style="endArrow=none;html=1;fontFamily=Comic Sans MS;fontSize=24;fontColor=#000000;strokeColor=#000000;strokeWidth=3;comic=1;fontStyle=1;entryX=-0.002;entryY=0.819;entryDx=0;entryDy=0;entryPerimeter=0;" parent="87" target="4" edge="1">
                    <mxGeometry width="50" height="50" relative="1" as="geometry">
                        <mxPoint y="226.34" as="sourcePoint"/>
                        <mxPoint x="56" y="225.34" as="targetPoint"/>
                    </mxGeometry>
                </mxCell>
                <mxCell id="13" value="" style="endArrow=none;html=1;fontFamily=Comic Sans MS;fontSize=24;fontColor=#000000;strokeColor=#000000;strokeWidth=3;comic=1;fontStyle=1" parent="87" edge="1">
                    <mxGeometry width="50" height="50" relative="1" as="geometry">
                        <mxPoint x="280" y="71.34" as="sourcePoint"/>
                        <mxPoint x="336" y="71.34" as="targetPoint"/>
                    </mxGeometry>
                </mxCell>
                <mxCell id="14" value="" style="endArrow=none;html=1;fontFamily=Comic Sans MS;fontSize=24;fontColor=#000000;strokeColor=#000000;strokeWidth=3;comic=1;fontStyle=1" parent="87" edge="1">
                    <mxGeometry width="50" height="50" relative="1" as="geometry">
                        <mxPoint x="280" y="119.34" as="sourcePoint"/>
                        <mxPoint x="336" y="119.34" as="targetPoint"/>
                    </mxGeometry>
                </mxCell>
                <mxCell id="19" value="" style="endArrow=none;html=1;fontFamily=Comic Sans MS;fontSize=24;fontColor=#000000;strokeColor=#000000;strokeWidth=3;comic=1;exitX=0.307;exitY=0.006;exitDx=0;exitDy=0;exitPerimeter=0;fontStyle=1" parent="87" edge="1">
                    <mxGeometry width="50" height="50" relative="1" as="geometry">
                        <mxPoint x="175.99800000000005" y="43.34400000000005" as="sourcePoint"/>
                        <mxPoint x="177.23000000000002" as="targetPoint"/>
                    </mxGeometry>
                </mxCell>
                <mxCell id="20" value="" style="endArrow=none;html=1;fontFamily=Comic Sans MS;fontSize=24;fontColor=#000000;strokeColor=#000000;strokeWidth=3;comic=1;exitX=0.307;exitY=0.006;exitDx=0;exitDy=0;exitPerimeter=0;fontStyle=1" parent="87" edge="1">
                    <mxGeometry width="50" height="50" relative="1" as="geometry">
                        <mxPoint x="125.99800000000005" y="43.344000000000136" as="sourcePoint"/>
                        <mxPoint x="127" y="-3.6599999999999966" as="targetPoint"/>
                    </mxGeometry>
                </mxCell>
                <mxCell id="27" value="" style="endArrow=none;html=1;fontFamily=Comic Sans MS;fontSize=24;fontColor=#000000;strokeColor=#000000;strokeWidth=3;comic=1;fontStyle=1" parent="87" edge="1">
                    <mxGeometry width="50" height="50" relative="1" as="geometry">
                        <mxPoint x="112" y="43.34" as="sourcePoint"/>
                        <mxPoint x="139.9999999999999" y="43.34" as="targetPoint"/>
                        <Array as="points">
                            <mxPoint x="126" y="57.34"/>
                        </Array>
                    </mxGeometry>
                </mxCell>
                <mxCell id="31" value="" style="endArrow=none;html=1;fontFamily=Comic Sans MS;fontSize=24;fontColor=#000000;strokeColor=#000000;strokeWidth=3;comic=1;fontStyle=1" parent="87" edge="1">
                    <mxGeometry width="50" height="50" relative="1" as="geometry">
                        <mxPoint x="30" y="79.34" as="sourcePoint"/>
                        <mxPoint x="46" y="63.34" as="targetPoint"/>
                    </mxGeometry>
                </mxCell>
                <mxCell id="32" value="" style="endArrow=none;html=1;fontFamily=Comic Sans MS;fontSize=24;fontColor=#000000;strokeColor=#000000;strokeWidth=3;comic=1;fontStyle=1" parent="87" edge="1">
                    <mxGeometry width="50" height="50" relative="1" as="geometry">
                        <mxPoint x="30" y="119.34" as="sourcePoint"/>
                        <mxPoint x="46" y="103.34" as="targetPoint"/>
                    </mxGeometry>
                </mxCell>
                <mxCell id="33" value="5" style="text;html=1;strokeColor=none;fillColor=none;align=center;verticalAlign=middle;whiteSpace=wrap;rounded=0;comic=1;strokeWidth=4;fontFamily=Comic Sans MS;fontSize=17;fontColor=#000000;fontStyle=1" parent="87" vertex="1">
                    <mxGeometry x="32" y="120.34" width="16" height="8" as="geometry"/>
                </mxCell>
                <mxCell id="35" value="5" style="text;html=1;strokeColor=none;fillColor=none;align=center;verticalAlign=middle;whiteSpace=wrap;rounded=0;comic=1;strokeWidth=4;fontFamily=Comic Sans MS;fontSize=17;fontColor=#000000;fontStyle=1" parent="87" vertex="1">
                    <mxGeometry x="30" y="79.34" width="16" height="8" as="geometry"/>
                </mxCell>
                <mxCell id="37" value="" style="endArrow=none;html=1;fontFamily=Comic Sans MS;fontSize=24;fontColor=#000000;strokeColor=#000000;strokeWidth=3;comic=1;fontStyle=1" parent="87" edge="1">
                    <mxGeometry width="50" height="50" relative="1" as="geometry">
                        <mxPoint x="30" y="190.34" as="sourcePoint"/>
                        <mxPoint x="46.00000000000023" y="174.34" as="targetPoint"/>
                    </mxGeometry>
                </mxCell>
                <mxCell id="38" value="5" style="text;html=1;strokeColor=none;fillColor=none;align=center;verticalAlign=middle;whiteSpace=wrap;rounded=0;comic=1;strokeWidth=4;fontFamily=Comic Sans MS;fontSize=17;fontColor=#000000;fontStyle=1" parent="87" vertex="1">
                    <mxGeometry x="30" y="190.34" width="16" height="8" as="geometry"/>
                </mxCell>
                <mxCell id="39" value="" style="endArrow=none;html=1;fontFamily=Comic Sans MS;fontSize=24;fontColor=#000000;strokeColor=#000000;strokeWidth=3;comic=1;fontStyle=1" parent="87" edge="1">
                    <mxGeometry width="50" height="50" relative="1" as="geometry">
                        <mxPoint x="16" y="231.34" as="sourcePoint"/>
                        <mxPoint x="32.00000000000023" y="215.34" as="targetPoint"/>
                    </mxGeometry>
                </mxCell>
                <mxCell id="40" value="32" style="text;html=1;strokeColor=none;fillColor=none;align=center;verticalAlign=middle;whiteSpace=wrap;rounded=0;comic=1;strokeWidth=4;fontFamily=Comic Sans MS;fontSize=17;fontColor=#000000;fontStyle=1" parent="87" vertex="1">
                    <mxGeometry x="16" y="231.34" width="16" height="8" as="geometry"/>
                </mxCell>
                <mxCell id="41" value="" style="endArrow=none;html=1;fontFamily=Comic Sans MS;fontSize=24;fontColor=#000000;strokeColor=#000000;strokeWidth=3;comic=1;fontStyle=1" parent="87" edge="1">
                    <mxGeometry width="50" height="50" relative="1" as="geometry">
                        <mxPoint x="296" y="79.34" as="sourcePoint"/>
                        <mxPoint x="312.0000000000002" y="63.34" as="targetPoint"/>
                    </mxGeometry>
                </mxCell>
                <mxCell id="42" value="32" style="text;html=1;strokeColor=none;fillColor=none;align=center;verticalAlign=middle;whiteSpace=wrap;rounded=0;comic=1;strokeWidth=4;fontFamily=Comic Sans MS;fontSize=17;fontColor=#000000;fontStyle=1" parent="87" vertex="1">
                    <mxGeometry x="296" y="79.34" width="16" height="8" as="geometry"/>
                </mxCell>
                <mxCell id="43" value="" style="endArrow=none;html=1;fontFamily=Comic Sans MS;fontSize=24;fontColor=#000000;strokeColor=#000000;strokeWidth=3;comic=1;fontStyle=1" parent="87" edge="1">
                    <mxGeometry width="50" height="50" relative="1" as="geometry">
                        <mxPoint x="296" y="125.34" as="sourcePoint"/>
                        <mxPoint x="312.0000000000002" y="109.34" as="targetPoint"/>
                    </mxGeometry>
                </mxCell>
                <mxCell id="44" value="32" style="text;html=1;strokeColor=none;fillColor=none;align=center;verticalAlign=middle;whiteSpace=wrap;rounded=0;comic=1;strokeWidth=4;fontFamily=Comic Sans MS;fontSize=17;fontColor=#000000;fontStyle=1" parent="87" vertex="1">
                    <mxGeometry x="296" y="125.34" width="16" height="8" as="geometry"/>
                </mxCell>
                <mxCell id="63" value="CLK" style="text;html=1;strokeColor=none;fillColor=none;align=center;verticalAlign=middle;whiteSpace=wrap;rounded=0;comic=1;strokeWidth=4;fontFamily=Comic Sans MS;fontSize=17;fontColor=#000000;fontStyle=1" parent="87" vertex="1">
                    <mxGeometry x="80" y="15.340000000000003" width="40" height="8" as="geometry"/>
                </mxCell>
                <mxCell id="67" value="we3" style="text;html=1;strokeColor=none;fillColor=none;align=center;verticalAlign=middle;whiteSpace=wrap;rounded=0;comic=1;strokeWidth=4;fontFamily=Comic Sans MS;fontSize=22;fontColor=#000000;fontStyle=1" parent="87" vertex="1">
                    <mxGeometry x="160" y="55.34" width="40" height="8" as="geometry"/>
                </mxCell>
                <mxCell id="68" value="wd3" style="text;html=1;strokeColor=none;fillColor=none;align=center;verticalAlign=middle;whiteSpace=wrap;rounded=0;comic=1;strokeWidth=4;fontFamily=Comic Sans MS;fontSize=22;fontColor=#000000;fontStyle=1" parent="87" vertex="1">
                    <mxGeometry x="64" y="223.34" width="40" height="8" as="geometry"/>
                </mxCell>
                <mxCell id="69" value="a3" style="text;html=1;strokeColor=none;fillColor=none;align=center;verticalAlign=middle;whiteSpace=wrap;rounded=0;comic=1;strokeWidth=4;fontFamily=Comic Sans MS;fontSize=22;fontColor=#000000;fontStyle=1" parent="87" vertex="1">
                    <mxGeometry x="56" y="178.68000000000004" width="40" height="8" as="geometry"/>
                </mxCell>
                <mxCell id="70" value="a2" style="text;html=1;strokeColor=none;fillColor=none;align=center;verticalAlign=middle;whiteSpace=wrap;rounded=0;comic=1;strokeWidth=4;fontFamily=Comic Sans MS;fontSize=22;fontColor=#000000;fontStyle=1" parent="87" vertex="1">
                    <mxGeometry x="56" y="103.34" width="40" height="8" as="geometry"/>
                </mxCell>
                <mxCell id="71" value="a1" style="text;html=1;strokeColor=none;fillColor=none;align=center;verticalAlign=middle;whiteSpace=wrap;rounded=0;comic=1;strokeWidth=4;fontFamily=Comic Sans MS;fontSize=22;fontColor=#000000;fontStyle=1" parent="87" vertex="1">
                    <mxGeometry x="56" y="63.34" width="40" height="8" as="geometry"/>
                </mxCell>
                <mxCell id="72" value="rd1" style="text;html=1;strokeColor=none;fillColor=none;align=center;verticalAlign=middle;whiteSpace=wrap;rounded=0;comic=1;strokeWidth=4;fontFamily=Comic Sans MS;fontSize=22;fontColor=#000000;fontStyle=1" parent="87" vertex="1">
                    <mxGeometry x="232" y="66.68" width="40" height="8" as="geometry"/>
                </mxCell>
                <mxCell id="73" value="rd2" style="text;html=1;strokeColor=none;fillColor=none;align=center;verticalAlign=middle;whiteSpace=wrap;rounded=0;comic=1;strokeWidth=4;fontFamily=Comic Sans MS;fontSize=22;fontColor=#000000;fontStyle=1" parent="87" vertex="1">
                    <mxGeometry x="232" y="117.34" width="40" height="8" as="geometry"/>
                </mxCell>
                <mxCell id="88" value="" style="group" parent="1" vertex="1" connectable="0">
                    <mxGeometry x="777" y="-334.9999999999999" width="270" height="275.3399999999999" as="geometry"/>
                </mxCell>
                <mxCell id="5" value="&lt;pre&gt;&lt;span style=&quot;font-size: 24px;&quot;&gt;&lt;font face=&quot;Comic Sans MS&quot; style=&quot;font-size: 24px;&quot;&gt;Data&lt;br&gt;Memory&lt;/font&gt;&lt;/span&gt;&lt;/pre&gt;" style="whiteSpace=wrap;html=1;fillColor=none;strokeColor=#000000;strokeWidth=4;imageAspect=0;comic=1;enumerate=0;treeMoving=0;treeFolding=0;resizeHeight=1;resizeWidth=1;autosize=0;perimeter=parallelogramPerimeter;fontFamily=Comic Sans MS;fontColor=#000000;align=center;verticalAlign=bottom;horizontal=1;fontStyle=1" parent="88" vertex="1">
                    <mxGeometry x="56" y="43.33999999999992" width="128" height="232" as="geometry"/>
                </mxCell>
                <mxCell id="15" value="" style="endArrow=none;html=1;fontFamily=Comic Sans MS;fontSize=24;fontColor=#000000;strokeColor=#000000;strokeWidth=3;comic=1;fontStyle=1" parent="88" edge="1">
                    <mxGeometry width="50" height="50" relative="1" as="geometry">
                        <mxPoint y="99.33999999999992" as="sourcePoint"/>
                        <mxPoint x="56" y="99.33999999999992" as="targetPoint"/>
                    </mxGeometry>
                </mxCell>
                <mxCell id="16" value="" style="endArrow=none;html=1;fontFamily=Comic Sans MS;fontSize=24;fontColor=#000000;strokeColor=#000000;strokeWidth=3;comic=1;fontStyle=1" parent="88" edge="1">
                    <mxGeometry width="50" height="50" relative="1" as="geometry">
                        <mxPoint x="184" y="155.33999999999992" as="sourcePoint"/>
                        <mxPoint x="240" y="155.33999999999992" as="targetPoint"/>
                    </mxGeometry>
                </mxCell>
                <mxCell id="17" value="" style="endArrow=none;html=1;fontFamily=Comic Sans MS;fontSize=24;fontColor=#000000;strokeColor=#000000;strokeWidth=3;comic=1;fontStyle=1" parent="88" edge="1">
                    <mxGeometry width="50" height="50" relative="1" as="geometry">
                        <mxPoint y="178.38999999999993" as="sourcePoint"/>
                        <mxPoint x="56" y="178.38999999999993" as="targetPoint"/>
                    </mxGeometry>
                </mxCell>
                <mxCell id="21" value="" style="endArrow=none;html=1;fontFamily=Comic Sans MS;fontSize=24;fontColor=#000000;strokeColor=#000000;strokeWidth=3;comic=1;exitX=0.307;exitY=0.006;exitDx=0;exitDy=0;exitPerimeter=0;fontStyle=1" parent="88" edge="1">
                    <mxGeometry width="50" height="50" relative="1" as="geometry">
                        <mxPoint x="97.99800000000005" y="43.34400000000005" as="sourcePoint"/>
                        <mxPoint x="99.23000000000002" as="targetPoint"/>
                    </mxGeometry>
                </mxCell>
                <mxCell id="22" value="" style="endArrow=none;html=1;fontFamily=Comic Sans MS;fontSize=24;fontColor=#000000;strokeColor=#000000;strokeWidth=3;comic=1;exitX=0.307;exitY=0.006;exitDx=0;exitDy=0;exitPerimeter=0;fontStyle=1" parent="88" edge="1">
                    <mxGeometry width="50" height="50" relative="1" as="geometry">
                        <mxPoint x="141.99800000000005" y="43.34400000000005" as="sourcePoint"/>
                        <mxPoint x="143.23000000000002" as="targetPoint"/>
                    </mxGeometry>
                </mxCell>
                <mxCell id="28" value="" style="endArrow=none;html=1;fontFamily=Comic Sans MS;fontSize=24;fontColor=#000000;strokeColor=#000000;strokeWidth=3;comic=1;fontStyle=1" parent="88" edge="1">
                    <mxGeometry width="50" height="50" relative="1" as="geometry">
                        <mxPoint x="84" y="43.33999999999992" as="sourcePoint"/>
                        <mxPoint x="112" y="43.33999999999992" as="targetPoint"/>
                        <Array as="points">
                            <mxPoint x="98" y="57.33999999999992"/>
                        </Array>
                    </mxGeometry>
                </mxCell>
                <mxCell id="47" value="" style="endArrow=none;html=1;fontFamily=Comic Sans MS;fontSize=24;fontColor=#000000;strokeColor=#000000;strokeWidth=3;comic=1;fontStyle=1" parent="88" edge="1">
                    <mxGeometry width="50" height="50" relative="1" as="geometry">
                        <mxPoint x="24" y="187.33999999999992" as="sourcePoint"/>
                        <mxPoint x="40.00000000000023" y="171.33999999999992" as="targetPoint"/>
                    </mxGeometry>
                </mxCell>
                <mxCell id="48" value="32" style="text;html=1;strokeColor=none;fillColor=none;align=center;verticalAlign=middle;whiteSpace=wrap;rounded=0;comic=1;strokeWidth=4;fontFamily=Comic Sans MS;fontSize=17;fontColor=#000000;fontStyle=1" parent="88" vertex="1">
                    <mxGeometry x="24" y="187.33999999999992" width="16" height="8" as="geometry"/>
                </mxCell>
                <mxCell id="49" value="" style="endArrow=none;html=1;fontFamily=Comic Sans MS;fontSize=24;fontColor=#000000;strokeColor=#000000;strokeWidth=3;comic=1;fontStyle=1" parent="88" edge="1">
                    <mxGeometry width="50" height="50" relative="1" as="geometry">
                        <mxPoint x="24" y="107.33999999999992" as="sourcePoint"/>
                        <mxPoint x="40.00000000000023" y="91.33999999999992" as="targetPoint"/>
                    </mxGeometry>
                </mxCell>
                <mxCell id="50" value="32" style="text;html=1;strokeColor=none;fillColor=none;align=center;verticalAlign=middle;whiteSpace=wrap;rounded=0;comic=1;strokeWidth=4;fontFamily=Comic Sans MS;fontSize=17;fontColor=#000000;fontStyle=1" parent="88" vertex="1">
                    <mxGeometry x="24" y="107.33999999999992" width="16" height="8" as="geometry"/>
                </mxCell>
                <mxCell id="51" value="" style="endArrow=none;html=1;fontFamily=Comic Sans MS;fontSize=24;fontColor=#000000;strokeColor=#000000;strokeWidth=3;comic=1;fontStyle=1" parent="88" edge="1">
                    <mxGeometry width="50" height="50" relative="1" as="geometry">
                        <mxPoint x="190" y="163.33999999999992" as="sourcePoint"/>
                        <mxPoint x="206.00000000000023" y="147.33999999999992" as="targetPoint"/>
                    </mxGeometry>
                </mxCell>
                <mxCell id="52" value="32" style="text;html=1;strokeColor=none;fillColor=none;align=center;verticalAlign=middle;whiteSpace=wrap;rounded=0;comic=1;strokeWidth=4;fontFamily=Comic Sans MS;fontSize=17;fontColor=#000000;fontStyle=1" parent="88" vertex="1">
                    <mxGeometry x="193" y="163.33999999999992" width="16" height="8" as="geometry"/>
                </mxCell>
                <mxCell id="66" value="CLK" style="text;html=1;strokeColor=none;fillColor=none;align=center;verticalAlign=middle;whiteSpace=wrap;rounded=0;comic=1;strokeWidth=4;fontFamily=Comic Sans MS;fontSize=17;fontColor=#000000;fontStyle=1" parent="88" vertex="1">
                    <mxGeometry x="56" y="19.339999999999918" width="40" height="8" as="geometry"/>
                </mxCell>
                <mxCell id="74" value="a" style="text;html=1;strokeColor=none;fillColor=none;align=center;verticalAlign=middle;whiteSpace=wrap;rounded=0;comic=1;strokeWidth=4;fontFamily=Comic Sans MS;fontSize=22;fontColor=#000000;fontStyle=1" parent="88" vertex="1">
                    <mxGeometry x="56" y="94.67999999999995" width="40" height="8" as="geometry"/>
                </mxCell>
                <mxCell id="75" value="wd" style="text;html=1;strokeColor=none;fillColor=none;align=center;verticalAlign=middle;whiteSpace=wrap;rounded=0;comic=1;strokeWidth=4;fontFamily=Comic Sans MS;fontSize=22;fontColor=#000000;fontStyle=1" parent="88" vertex="1">
                    <mxGeometry x="64" y="174.67999999999995" width="40" height="8" as="geometry"/>
                </mxCell>
                <mxCell id="78" value="rd" style="text;html=1;strokeColor=none;fillColor=none;align=center;verticalAlign=middle;whiteSpace=wrap;rounded=0;comic=1;strokeWidth=4;fontFamily=Comic Sans MS;fontSize=22;fontColor=#000000;fontStyle=1" parent="88" vertex="1">
                    <mxGeometry x="144" y="147.33999999999992" width="40" height="16" as="geometry"/>
                </mxCell>
                <mxCell id="79" value="we" style="text;html=1;strokeColor=none;fillColor=none;align=center;verticalAlign=middle;whiteSpace=wrap;rounded=0;comic=1;strokeWidth=4;fontFamily=Comic Sans MS;fontSize=22;fontColor=#000000;fontStyle=1" parent="88" vertex="1">
                    <mxGeometry x="120" y="51.33999999999992" width="40" height="8" as="geometry"/>
                </mxCell>
                <mxCell id="170" value="" style="group" parent="1" vertex="1" connectable="0">
                    <mxGeometry x="671" y="235" width="148" height="117" as="geometry"/>
                </mxCell>
                <mxCell id="179" value="" style="endArrow=none;html=1;fontFamily=Comic Sans MS;fontSize=24;fontColor=#000000;strokeColor=#000000;strokeWidth=3;comic=1;fontStyle=1;exitX=0;exitY=0.662;exitDx=0;exitDy=0;exitPerimeter=0;" parent="170" edge="1">
                    <mxGeometry width="50" height="50" relative="1" as="geometry">
                        <mxPoint x="57.99800000000022" y="21" as="sourcePoint"/>
                        <mxPoint x="58.450000000000216" as="targetPoint"/>
                    </mxGeometry>
                </mxCell>
                <mxCell id="173" value="&lt;font style=&quot;font-size: 17px;&quot;&gt;&lt;b&gt;mux&lt;/b&gt;&lt;/font&gt;" style="shape=loopLimit;whiteSpace=wrap;html=1;comic=1;strokeColor=#000000;strokeWidth=4;fontFamily=Comic Sans MS;fontSize=22;fontColor=#000000;fillColor=none;rotation=90;horizontal=0;verticalAlign=middle;" parent="170" vertex="1">
                    <mxGeometry x="27" y="36" width="76" height="46" as="geometry"/>
                </mxCell>
                <mxCell id="174" value="0" style="text;html=1;strokeColor=none;fillColor=none;align=center;verticalAlign=middle;whiteSpace=wrap;rounded=0;comic=1;strokeWidth=4;fontFamily=Comic Sans MS;fontSize=17;fontColor=#000000;fontStyle=1" parent="170" vertex="1">
                    <mxGeometry x="42" y="33" width="16" height="8" as="geometry"/>
                </mxCell>
                <mxCell id="175" value="1" style="text;html=1;strokeColor=none;fillColor=none;align=center;verticalAlign=middle;whiteSpace=wrap;rounded=0;comic=1;strokeWidth=4;fontFamily=Comic Sans MS;fontSize=17;fontColor=#000000;fontStyle=1" parent="170" vertex="1">
                    <mxGeometry x="42" y="75" width="16" height="8" as="geometry"/>
                </mxCell>
                <mxCell id="176" value="" style="endArrow=none;html=1;fontFamily=Comic Sans MS;fontSize=24;fontColor=#000000;strokeColor=#000000;strokeWidth=3;comic=1;fontStyle=1;exitX=1;exitY=0.25;exitDx=0;exitDy=0;" parent="170" edge="1">
                    <mxGeometry width="50" height="50" relative="1" as="geometry">
                        <mxPoint x="90" y="58.91999999999989" as="sourcePoint"/>
                        <mxPoint x="120" y="59.019999999999996" as="targetPoint"/>
                    </mxGeometry>
                </mxCell>
                <mxCell id="177" value="" style="endArrow=none;html=1;fontFamily=Comic Sans MS;fontSize=24;fontColor=#000000;strokeColor=#000000;strokeWidth=3;comic=1;fontStyle=1;exitX=1;exitY=0.25;exitDx=0;exitDy=0;" parent="170" edge="1">
                    <mxGeometry width="50" height="50" relative="1" as="geometry">
                        <mxPoint y="36.8" as="sourcePoint"/>
                        <mxPoint x="42" y="36.8" as="targetPoint"/>
                    </mxGeometry>
                </mxCell>
                <mxCell id="178" value="" style="endArrow=none;html=1;fontFamily=Comic Sans MS;fontSize=24;fontColor=#000000;strokeColor=#000000;strokeWidth=3;comic=1;fontStyle=1;exitX=1;exitY=0.25;exitDx=0;exitDy=0;" parent="170" edge="1">
                    <mxGeometry width="50" height="50" relative="1" as="geometry">
                        <mxPoint x="16" y="82" as="sourcePoint"/>
                        <mxPoint x="41" y="82" as="targetPoint"/>
                    </mxGeometry>
                </mxCell>
                <mxCell id="210" value="" style="endArrow=none;html=1;fontFamily=Comic Sans MS;fontSize=24;fontColor=#0000FF;strokeColor=#0000FF;strokeWidth=3;comic=1;fontStyle=1" parent="170" edge="1">
                    <mxGeometry width="50" height="50" relative="1" as="geometry">
                        <mxPoint x="120" y="59" as="sourcePoint"/>
                        <mxPoint x="166" y="59" as="targetPoint"/>
                    </mxGeometry>
                </mxCell>
                <mxCell id="227" value="" style="endArrow=none;html=1;fontFamily=Comic Sans MS;fontSize=24;fontColor=#0000FF;strokeColor=#0000FF;strokeWidth=3;comic=1;fontStyle=1" parent="170" edge="1">
                    <mxGeometry width="50" height="50" relative="1" as="geometry">
                        <mxPoint x="-115" y="249" as="sourcePoint"/>
                        <mxPoint x="15" y="82" as="targetPoint"/>
                        <Array as="points">
                            <mxPoint x="14" y="249"/>
                        </Array>
                    </mxGeometry>
                </mxCell>
                <mxCell id="280" value="&lt;font color=&quot;#0000ff&quot;&gt;&lt;span style=&quot;font-size: 14px;&quot;&gt;SrcB&lt;/span&gt;&lt;/font&gt;" style="text;html=1;strokeColor=none;fillColor=none;align=center;verticalAlign=middle;whiteSpace=wrap;rounded=0;comic=1;strokeWidth=4;fontFamily=Comic Sans MS;fontSize=22;fontColor=#000000;fontStyle=1" parent="170" vertex="1">
                    <mxGeometry x="103" y="41" width="40" height="8" as="geometry"/>
                </mxCell>
                <mxCell id="199" value="" style="group" parent="1" vertex="1" connectable="0">
                    <mxGeometry x="1085" y="204" width="148" height="117" as="geometry"/>
                </mxCell>
                <mxCell id="200" value="" style="group;horizontal=1;" parent="199" vertex="1" connectable="0">
                    <mxGeometry y="21" width="148" height="96" as="geometry"/>
                </mxCell>
                <mxCell id="201" value="" style="group" parent="200" vertex="1" connectable="0">
                    <mxGeometry width="120" height="78" as="geometry"/>
                </mxCell>
                <mxCell id="202" value="&lt;font style=&quot;font-size: 17px;&quot;&gt;&lt;b&gt;mux&lt;/b&gt;&lt;/font&gt;" style="shape=loopLimit;whiteSpace=wrap;html=1;comic=1;strokeColor=#000000;strokeWidth=4;fontFamily=Comic Sans MS;fontSize=22;fontColor=#000000;fillColor=none;rotation=90;horizontal=0;verticalAlign=middle;" parent="201" vertex="1">
                    <mxGeometry x="27" y="15" width="76" height="46" as="geometry"/>
                </mxCell>
                <mxCell id="203" value="1" style="text;html=1;strokeColor=none;fillColor=none;align=center;verticalAlign=middle;whiteSpace=wrap;rounded=0;comic=1;strokeWidth=4;fontFamily=Comic Sans MS;fontSize=17;fontColor=#000000;fontStyle=1" parent="201" vertex="1">
                    <mxGeometry x="42" y="12" width="16" height="8" as="geometry"/>
                </mxCell>
                <mxCell id="204" value="0" style="text;html=1;strokeColor=none;fillColor=none;align=center;verticalAlign=middle;whiteSpace=wrap;rounded=0;comic=1;strokeWidth=4;fontFamily=Comic Sans MS;fontSize=17;fontColor=#000000;fontStyle=1" parent="201" vertex="1">
                    <mxGeometry x="42" y="54" width="16" height="8" as="geometry"/>
                </mxCell>
                <mxCell id="205" value="" style="endArrow=none;html=1;fontFamily=Comic Sans MS;fontSize=24;fontColor=#000000;strokeColor=#000000;strokeWidth=3;comic=1;fontStyle=1;exitX=1;exitY=0.25;exitDx=0;exitDy=0;" parent="201" edge="1">
                    <mxGeometry width="50" height="50" relative="1" as="geometry">
                        <mxPoint x="90" y="37.91999999999989" as="sourcePoint"/>
                        <mxPoint x="120" y="38.019999999999996" as="targetPoint"/>
                    </mxGeometry>
                </mxCell>
                <mxCell id="206" value="" style="endArrow=none;html=1;fontFamily=Comic Sans MS;fontSize=24;fontColor=#000000;strokeColor=#000000;strokeWidth=3;comic=1;fontStyle=1;exitX=1;exitY=0.25;exitDx=0;exitDy=0;" parent="201" edge="1">
                    <mxGeometry width="50" height="50" relative="1" as="geometry">
                        <mxPoint y="15.8" as="sourcePoint"/>
                        <mxPoint x="42" y="15.8" as="targetPoint"/>
                    </mxGeometry>
                </mxCell>
                <mxCell id="207" value="" style="endArrow=none;html=1;fontFamily=Comic Sans MS;fontSize=24;fontColor=#000000;strokeColor=#000000;strokeWidth=3;comic=1;fontStyle=1;exitX=1;exitY=0.25;exitDx=0;exitDy=0;" parent="201" edge="1">
                    <mxGeometry width="50" height="50" relative="1" as="geometry">
                        <mxPoint y="61" as="sourcePoint"/>
                        <mxPoint x="42" y="61" as="targetPoint"/>
                    </mxGeometry>
                </mxCell>
                <mxCell id="208" value="" style="endArrow=none;html=1;fontFamily=Comic Sans MS;fontSize=24;fontColor=#000000;strokeColor=#000000;strokeWidth=3;comic=1;fontStyle=1;exitX=0;exitY=0.662;exitDx=0;exitDy=0;exitPerimeter=0;" parent="199" edge="1">
                    <mxGeometry width="50" height="50" relative="1" as="geometry">
                        <mxPoint x="57.99800000000022" y="21" as="sourcePoint"/>
                        <mxPoint x="58.450000000000216" as="targetPoint"/>
                    </mxGeometry>
                </mxCell>
                <mxCell id="214" value="" style="endArrow=none;html=1;fontFamily=Comic Sans MS;fontSize=24;fontColor=#0000FF;strokeColor=#0000FF;strokeWidth=3;comic=1;fontStyle=1" parent="1" edge="1">
                    <mxGeometry width="50" height="50" relative="1" as="geometry">
                        <mxPoint x="673" y="224" as="sourcePoint"/>
                        <mxPoint x="834" y="224" as="targetPoint"/>
                        <Array as="points">
                            <mxPoint x="753" y="223"/>
                        </Array>
                    </mxGeometry>
                </mxCell>
                <mxCell id="215" value="" style="group" parent="1" vertex="1" connectable="0">
                    <mxGeometry x="835" y="148.00000000000009" width="200" height="180.57999999999996" as="geometry"/>
                </mxCell>
                <mxCell id="93" value="&lt;b&gt;&lt;font style=&quot;font-size: 26px;&quot;&gt;ALU&lt;/font&gt;&lt;/b&gt;" style="shape=loopLimit;whiteSpace=wrap;html=1;comic=1;strokeColor=#000000;strokeWidth=4;fontFamily=Comic Sans MS;fontSize=22;fontColor=#000000;fillColor=none;rotation=90;horizontal=0;" parent="215" vertex="1">
                    <mxGeometry x="29.879999999999995" y="58.28999999999991" width="138.08" height="106.5" as="geometry"/>
                </mxCell>
                <mxCell id="95" value="" style="endArrow=none;html=1;fontFamily=Comic Sans MS;fontSize=24;fontColor=#000000;strokeColor=#000000;strokeWidth=3;comic=1;exitX=0.307;exitY=0.006;exitDx=0;exitDy=0;exitPerimeter=0;fontStyle=1" parent="215" edge="1">
                    <mxGeometry width="50" height="50" relative="1" as="geometry">
                        <mxPoint x="89.99800000000005" y="43.34400000000005" as="sourcePoint"/>
                        <mxPoint x="91.23000000000002" as="targetPoint"/>
                    </mxGeometry>
                </mxCell>
                <mxCell id="97" value="" style="endArrow=none;html=1;fontFamily=Comic Sans MS;fontSize=24;fontColor=#000000;strokeColor=#000000;strokeWidth=3;comic=1;exitX=0.307;exitY=0.006;exitDx=0;exitDy=0;exitPerimeter=0;fontStyle=1" parent="215" edge="1">
                    <mxGeometry width="50" height="50" relative="1" as="geometry">
                        <mxPoint x="153.99800000000005" y="79.684" as="sourcePoint"/>
                        <mxPoint x="174" y="79.99999999999991" as="targetPoint"/>
                    </mxGeometry>
                </mxCell>
                <mxCell id="101" value="ctl" style="text;html=1;strokeColor=none;fillColor=none;align=center;verticalAlign=middle;whiteSpace=wrap;rounded=0;comic=1;strokeWidth=4;fontFamily=Comic Sans MS;fontSize=17;fontColor=#000000;fontStyle=1" parent="215" vertex="1">
                    <mxGeometry x="86" y="50.28999999999992" width="16" height="8" as="geometry"/>
                </mxCell>
                <mxCell id="102" value="a" style="text;html=1;strokeColor=none;fillColor=none;align=center;verticalAlign=middle;whiteSpace=wrap;rounded=0;comic=1;strokeWidth=4;fontFamily=Comic Sans MS;fontSize=17;fontColor=#000000;fontStyle=1" parent="215" vertex="1">
                    <mxGeometry x="50" y="71.33999999999992" width="16" height="8" as="geometry"/>
                </mxCell>
                <mxCell id="103" value="b" style="text;html=1;strokeColor=none;fillColor=none;align=center;verticalAlign=middle;whiteSpace=wrap;rounded=0;comic=1;strokeWidth=4;fontFamily=Comic Sans MS;fontSize=17;fontColor=#000000;fontStyle=1" parent="215" vertex="1">
                    <mxGeometry x="50" y="143.33999999999995" width="16" height="8" as="geometry"/>
                </mxCell>
                <mxCell id="104" value="y" style="text;html=1;strokeColor=none;fillColor=none;align=center;verticalAlign=middle;whiteSpace=wrap;rounded=0;comic=1;strokeWidth=4;fontFamily=Comic Sans MS;fontSize=17;fontColor=#000000;fontStyle=1" parent="215" vertex="1">
                    <mxGeometry x="130" y="131.33999999999995" width="16" height="8" as="geometry"/>
                </mxCell>
                <mxCell id="105" value="z" style="text;html=1;strokeColor=none;fillColor=none;align=center;verticalAlign=middle;whiteSpace=wrap;rounded=0;comic=1;strokeWidth=4;fontFamily=Comic Sans MS;fontSize=17;fontColor=#000000;fontStyle=1" parent="215" vertex="1">
                    <mxGeometry x="130" y="71.33999999999992" width="16" height="8" as="geometry"/>
                </mxCell>
                <mxCell id="190" value="" style="endArrow=none;html=1;fontFamily=Comic Sans MS;fontSize=24;fontColor=#000000;strokeColor=#000000;strokeWidth=3;comic=1;fontStyle=1;" parent="215" edge="1">
                    <mxGeometry width="50" height="50" relative="1" as="geometry">
                        <mxPoint x="-2" y="75.99999999999991" as="sourcePoint"/>
                        <mxPoint x="45" y="76.99999999999991" as="targetPoint"/>
                    </mxGeometry>
                </mxCell>
                <mxCell id="191" value="" style="endArrow=none;html=1;fontFamily=Comic Sans MS;fontSize=24;fontColor=#000000;strokeColor=#000000;strokeWidth=3;comic=1;fontStyle=1" parent="215" edge="1">
                    <mxGeometry width="50" height="50" relative="1" as="geometry">
                        <mxPoint x="16" y="85.65999999999988" as="sourcePoint"/>
                        <mxPoint x="32.00000000000023" y="69.65999999999991" as="targetPoint"/>
                    </mxGeometry>
                </mxCell>
                <mxCell id="192" value="32" style="text;html=1;strokeColor=none;fillColor=none;align=center;verticalAlign=middle;whiteSpace=wrap;rounded=0;comic=1;strokeWidth=4;fontFamily=Comic Sans MS;fontSize=17;fontColor=#000000;fontStyle=1" parent="215" vertex="1">
                    <mxGeometry x="20" y="85.99999999999991" width="16" height="8" as="geometry"/>
                </mxCell>
                <mxCell id="193" value="" style="endArrow=none;html=1;fontFamily=Comic Sans MS;fontSize=24;fontColor=#000000;strokeColor=#000000;strokeWidth=3;comic=1;fontStyle=1" parent="215" edge="1">
                    <mxGeometry width="50" height="50" relative="1" as="geometry">
                        <mxPoint x="18" y="152.99999999999994" as="sourcePoint"/>
                        <mxPoint x="34.00000000000023" y="136.99999999999994" as="targetPoint"/>
                    </mxGeometry>
                </mxCell>
                <mxCell id="194" value="32" style="text;html=1;strokeColor=none;fillColor=none;align=center;verticalAlign=middle;whiteSpace=wrap;rounded=0;comic=1;strokeWidth=4;fontFamily=Comic Sans MS;fontSize=17;fontColor=#000000;fontStyle=1" parent="215" vertex="1">
                    <mxGeometry x="22" y="153.33999999999992" width="16" height="8" as="geometry"/>
                </mxCell>
                <mxCell id="195" value="" style="endArrow=none;html=1;fontFamily=Comic Sans MS;fontSize=24;fontColor=#000000;strokeColor=#000000;strokeWidth=3;comic=1;fontStyle=1;entryX=0.256;entryY=1.013;entryDx=0;entryDy=0;entryPerimeter=0;" parent="215" edge="1">
                    <mxGeometry width="50" height="50" relative="1" as="geometry">
                        <mxPoint x="2" y="144.99999999999994" as="sourcePoint"/>
                        <mxPoint x="46.285499999999956" y="145.1884799999999" as="targetPoint"/>
                    </mxGeometry>
                </mxCell>
                <mxCell id="196" value="" style="endArrow=none;html=1;fontFamily=Comic Sans MS;fontSize=24;fontColor=#000000;strokeColor=#000000;strokeWidth=3;comic=1;fontStyle=1" parent="215" edge="1">
                    <mxGeometry width="50" height="50" relative="1" as="geometry">
                        <mxPoint x="168" y="147.33999999999995" as="sourcePoint"/>
                        <mxPoint x="184.00000000000023" y="131.33999999999995" as="targetPoint"/>
                    </mxGeometry>
                </mxCell>
                <mxCell id="197" value="32" style="text;html=1;strokeColor=none;fillColor=none;align=center;verticalAlign=middle;whiteSpace=wrap;rounded=0;comic=1;strokeWidth=4;fontFamily=Comic Sans MS;fontSize=17;fontColor=#000000;fontStyle=1" parent="215" vertex="1">
                    <mxGeometry x="172" y="147.67999999999992" width="16" height="8" as="geometry"/>
                </mxCell>
                <mxCell id="198" value="" style="endArrow=none;html=1;fontFamily=Comic Sans MS;fontSize=24;fontColor=#000000;strokeColor=#000000;strokeWidth=3;comic=1;fontStyle=1;entryX=0.256;entryY=1.013;entryDx=0;entryDy=0;entryPerimeter=0;" parent="215" edge="1">
                    <mxGeometry width="50" height="50" relative="1" as="geometry">
                        <mxPoint x="152" y="139.33999999999995" as="sourcePoint"/>
                        <mxPoint x="196.28549999999996" y="139.52847999999986" as="targetPoint"/>
                    </mxGeometry>
                </mxCell>
                <mxCell id="281" value="&lt;font color=&quot;#0000ff&quot;&gt;&lt;span style=&quot;font-size: 14px;&quot;&gt;SrcA&lt;/span&gt;&lt;/font&gt;" style="text;html=1;strokeColor=none;fillColor=none;align=center;verticalAlign=middle;whiteSpace=wrap;rounded=0;comic=1;strokeWidth=4;fontFamily=Comic Sans MS;fontSize=22;fontColor=#000000;fontStyle=1" parent="215" vertex="1">
                    <mxGeometry x="-24" y="58.28999999999991" width="40" height="8" as="geometry"/>
                </mxCell>
                <mxCell id="216" value="" style="endArrow=none;html=1;fontFamily=Comic Sans MS;fontSize=24;fontColor=#0000FF;strokeColor=#0000FF;strokeWidth=3;comic=1;fontStyle=1" parent="1" edge="1">
                    <mxGeometry width="50" height="50" relative="1" as="geometry">
                        <mxPoint x="729" y="237" as="sourcePoint"/>
                        <mxPoint x="732" y="27" as="targetPoint"/>
                        <Array as="points">
                            <mxPoint x="729" y="231"/>
                            <mxPoint x="724" y="228"/>
                            <mxPoint x="722" y="222"/>
                            <mxPoint x="727" y="217"/>
                            <mxPoint x="730" y="208"/>
                            <mxPoint x="731" y="176"/>
                        </Array>
                    </mxGeometry>
                </mxCell>
                <mxCell id="217" value="" style="endArrow=none;html=1;fontFamily=Comic Sans MS;fontSize=24;fontColor=#0000FF;strokeColor=#0000FF;strokeWidth=3;comic=1;fontStyle=1" parent="1" edge="1">
                    <mxGeometry width="50" height="50" relative="1" as="geometry">
                        <mxPoint x="1032" y="287" as="sourcePoint"/>
                        <mxPoint x="1084" y="285.83" as="targetPoint"/>
                    </mxGeometry>
                </mxCell>
                <mxCell id="219" value="" style="endArrow=none;html=1;fontFamily=Comic Sans MS;fontSize=24;fontColor=#0000FF;strokeColor=#0000FF;strokeWidth=3;comic=1;fontStyle=1" parent="1" edge="1">
                    <mxGeometry width="50" height="50" relative="1" as="geometry">
                        <mxPoint x="926" y="148" as="sourcePoint"/>
                        <mxPoint x="928" y="-15" as="targetPoint"/>
                    </mxGeometry>
                </mxCell>
                <mxCell id="220" value="" style="endArrow=none;html=1;fontFamily=Comic Sans MS;fontSize=24;fontColor=#0000FF;strokeColor=#0000FF;strokeWidth=3;comic=1;fontStyle=1" parent="1" edge="1">
                    <mxGeometry width="50" height="50" relative="1" as="geometry">
                        <mxPoint x="1143" y="205" as="sourcePoint"/>
                        <mxPoint x="1145" y="17" as="targetPoint"/>
                    </mxGeometry>
                </mxCell>
                <mxCell id="226" value="" style="group" parent="1" vertex="1" connectable="0">
                    <mxGeometry x="386" y="460" width="171" height="48" as="geometry"/>
                </mxCell>
                <mxCell id="91" value="&lt;b&gt;Sign Extend&lt;/b&gt;" style="shape=manualInput;whiteSpace=wrap;html=1;comic=1;strokeColor=#000000;strokeWidth=4;fontFamily=Comic Sans MS;fontSize=22;fontColor=#000000;fillColor=none;size=21;verticalAlign=bottom;" parent="226" vertex="1">
                    <mxGeometry width="128" height="48" as="geometry"/>
                </mxCell>
                <mxCell id="223" value="" style="endArrow=none;html=1;fontFamily=Comic Sans MS;fontSize=24;fontColor=#000000;strokeColor=#000000;strokeWidth=3;comic=1;fontStyle=1" parent="226" edge="1">
                    <mxGeometry width="50" height="50" relative="1" as="geometry">
                        <mxPoint x="128" y="23.829999999999927" as="sourcePoint"/>
                        <mxPoint x="171" y="24" as="targetPoint"/>
                    </mxGeometry>
                </mxCell>
                <mxCell id="224" value="32" style="text;html=1;strokeColor=none;fillColor=none;align=center;verticalAlign=middle;whiteSpace=wrap;rounded=0;comic=1;strokeWidth=4;fontFamily=Comic Sans MS;fontSize=17;fontColor=#000000;fontStyle=1" parent="226" vertex="1">
                    <mxGeometry x="147" y="32" width="16" height="8" as="geometry"/>
                </mxCell>
                <mxCell id="225" value="" style="endArrow=none;html=1;fontFamily=Comic Sans MS;fontSize=24;fontColor=#000000;strokeColor=#000000;strokeWidth=3;comic=1;fontStyle=1" parent="226" edge="1">
                    <mxGeometry width="50" height="50" relative="1" as="geometry">
                        <mxPoint x="140" y="32" as="sourcePoint"/>
                        <mxPoint x="156.00000000000045" y="16" as="targetPoint"/>
                    </mxGeometry>
                </mxCell>
                <mxCell id="231" value="" style="endArrow=none;html=1;fontFamily=Comic Sans MS;fontSize=24;fontColor=#0000FF;strokeColor=#0000FF;strokeWidth=3;comic=1;fontStyle=1;exitX=0;exitY=0.75;exitDx=0;exitDy=0;" parent="1" source="91" edge="1">
                    <mxGeometry width="50" height="50" relative="1" as="geometry">
                        <mxPoint x="87" y="379.5" as="sourcePoint"/>
                        <mxPoint x="140" y="69" as="targetPoint"/>
                        <Array as="points">
                            <mxPoint x="347" y="497"/>
                            <mxPoint x="335" y="503"/>
                            <mxPoint x="322" y="497"/>
                            <mxPoint x="141" y="497"/>
                        </Array>
                    </mxGeometry>
                </mxCell>
                <mxCell id="232" value="" style="endArrow=none;html=1;fontFamily=Comic Sans MS;fontSize=24;fontColor=#0000FF;strokeColor=#0000FF;strokeWidth=3;comic=1;fontStyle=1" parent="1" edge="1">
                    <mxGeometry width="50" height="50" relative="1" as="geometry">
                        <mxPoint x="141" y="267" as="sourcePoint"/>
                        <mxPoint x="336" y="266" as="targetPoint"/>
                        <Array as="points">
                            <mxPoint x="309" y="266"/>
                        </Array>
                    </mxGeometry>
                </mxCell>
                <mxCell id="236" value="" style="endArrow=none;html=1;fontFamily=Comic Sans MS;fontSize=24;fontColor=#0000FF;strokeColor=#0000FF;strokeWidth=3;comic=1;fontStyle=1" parent="1" edge="1">
                    <mxGeometry width="50" height="50" relative="1" as="geometry">
                        <mxPoint x="336" y="380" as="sourcePoint"/>
                        <mxPoint x="1204" y="263" as="targetPoint"/>
                        <Array as="points">
                            <mxPoint x="334" y="546"/>
                            <mxPoint x="1206" y="550"/>
                        </Array>
                    </mxGeometry>
                </mxCell>
                <mxCell id="237" value="" style="endArrow=none;html=1;fontFamily=Comic Sans MS;fontSize=24;fontColor=#0000FF;strokeColor=#0000FF;strokeWidth=3;comic=1;fontStyle=1" parent="1" edge="1">
                    <mxGeometry width="50" height="50" relative="1" as="geometry">
                        <mxPoint x="141" y="224" as="sourcePoint"/>
                        <mxPoint x="336" y="223" as="targetPoint"/>
                        <Array as="points">
                            <mxPoint x="309" y="223"/>
                        </Array>
                    </mxGeometry>
                </mxCell>
                <mxCell id="238" value="" style="endArrow=none;html=1;fontFamily=Comic Sans MS;fontSize=24;fontColor=#0000FF;strokeColor=#0000FF;strokeWidth=3;comic=1;fontStyle=1" parent="1" edge="1">
                    <mxGeometry width="50" height="50" relative="1" as="geometry">
                        <mxPoint x="513" y="159" as="sourcePoint"/>
                        <mxPoint x="515" y="23" as="targetPoint"/>
                    </mxGeometry>
                </mxCell>
                <mxCell id="242" value="" style="endArrow=none;html=1;fontFamily=Comic Sans MS;fontSize=24;fontColor=#0000FF;strokeColor=#0000FF;strokeWidth=3;comic=1;fontStyle=1" parent="1" edge="1">
                    <mxGeometry width="50" height="50" relative="1" as="geometry">
                        <mxPoint x="142" y="358" as="sourcePoint"/>
                        <mxPoint x="195" y="358" as="targetPoint"/>
                        <Array as="points"/>
                    </mxGeometry>
                </mxCell>
                <mxCell id="271" value="&lt;font color=&quot;#0000ff&quot; style=&quot;font-size: 16px;&quot;&gt;15:11&lt;/font&gt;" style="text;html=1;strokeColor=none;fillColor=none;align=center;verticalAlign=middle;whiteSpace=wrap;rounded=0;comic=1;strokeWidth=4;fontFamily=Comic Sans MS;fontSize=22;fontColor=#000000;fontStyle=1" parent="1" vertex="1">
                    <mxGeometry x="143" y="344" width="40" height="8" as="geometry"/>
                </mxCell>
                <mxCell id="272" value="&lt;font color=&quot;#0000ff&quot; style=&quot;font-size: 16px;&quot;&gt;15:0&lt;/font&gt;" style="text;html=1;strokeColor=none;fillColor=none;align=center;verticalAlign=middle;whiteSpace=wrap;rounded=0;comic=1;strokeWidth=4;fontFamily=Comic Sans MS;fontSize=22;fontColor=#000000;fontStyle=1" parent="1" vertex="1">
                    <mxGeometry x="147" y="482" width="40" height="8" as="geometry"/>
                </mxCell>
                <mxCell id="273" value="&lt;font color=&quot;#0000ff&quot;&gt;&lt;span style=&quot;font-size: 16px;&quot;&gt;20:16&lt;/span&gt;&lt;/font&gt;" style="text;html=1;strokeColor=none;fillColor=none;align=center;verticalAlign=middle;whiteSpace=wrap;rounded=0;comic=1;strokeWidth=4;fontFamily=Comic Sans MS;fontSize=22;fontColor=#000000;fontStyle=1" parent="1" vertex="1">
                    <mxGeometry x="143" y="298" width="40" height="8" as="geometry"/>
                </mxCell>
                <mxCell id="274" value="&lt;font color=&quot;#0000ff&quot;&gt;&lt;span style=&quot;font-size: 16px;&quot;&gt;20:16&lt;/span&gt;&lt;/font&gt;" style="text;html=1;strokeColor=none;fillColor=none;align=center;verticalAlign=middle;whiteSpace=wrap;rounded=0;comic=1;strokeWidth=4;fontFamily=Comic Sans MS;fontSize=22;fontColor=#000000;fontStyle=1" parent="1" vertex="1">
                    <mxGeometry x="143" y="252" width="40" height="8" as="geometry"/>
                </mxCell>
                <mxCell id="275" value="&lt;font color=&quot;#0000ff&quot;&gt;&lt;span style=&quot;font-size: 16px;&quot;&gt;25:21&lt;/span&gt;&lt;/font&gt;" style="text;html=1;strokeColor=none;fillColor=none;align=center;verticalAlign=middle;whiteSpace=wrap;rounded=0;comic=1;strokeWidth=4;fontFamily=Comic Sans MS;fontSize=22;fontColor=#000000;fontStyle=1" parent="1" vertex="1">
                    <mxGeometry x="143" y="208" width="40" height="8" as="geometry"/>
                </mxCell>
                <mxCell id="278" value="" style="group" parent="1" vertex="1" connectable="0">
                    <mxGeometry x="195" y="212" width="153" height="181" as="geometry"/>
                </mxCell>
                <mxCell id="169" value="" style="group" parent="278" vertex="1" connectable="0">
                    <mxGeometry y="64" width="153" height="117" as="geometry"/>
                </mxCell>
                <mxCell id="125" value="" style="group;horizontal=1;" parent="169" vertex="1" connectable="0">
                    <mxGeometry y="21" width="153" height="96" as="geometry"/>
                </mxCell>
                <mxCell id="142" value="" style="group" parent="125" vertex="1" connectable="0">
                    <mxGeometry width="120" height="76" as="geometry"/>
                </mxCell>
                <mxCell id="126" value="&lt;font style=&quot;font-size: 17px;&quot;&gt;&lt;b&gt;mux&lt;/b&gt;&lt;/font&gt;" style="shape=loopLimit;whiteSpace=wrap;html=1;comic=1;strokeColor=#000000;strokeWidth=4;fontFamily=Comic Sans MS;fontSize=22;fontColor=#000000;fillColor=none;rotation=90;horizontal=0;verticalAlign=middle;" parent="142" vertex="1">
                    <mxGeometry x="27" y="15" width="76" height="46" as="geometry"/>
                </mxCell>
                <mxCell id="127" value="0" style="text;html=1;strokeColor=none;fillColor=none;align=center;verticalAlign=middle;whiteSpace=wrap;rounded=0;comic=1;strokeWidth=4;fontFamily=Comic Sans MS;fontSize=17;fontColor=#000000;fontStyle=1" parent="142" vertex="1">
                    <mxGeometry x="42" y="12" width="16" height="8" as="geometry"/>
                </mxCell>
                <mxCell id="128" value="1" style="text;html=1;strokeColor=none;fillColor=none;align=center;verticalAlign=middle;whiteSpace=wrap;rounded=0;comic=1;strokeWidth=4;fontFamily=Comic Sans MS;fontSize=17;fontColor=#000000;fontStyle=1" parent="142" vertex="1">
                    <mxGeometry x="42" y="54" width="16" height="8" as="geometry"/>
                </mxCell>
                <mxCell id="130" value="" style="endArrow=none;html=1;fontFamily=Comic Sans MS;fontSize=24;fontColor=#000000;strokeColor=#000000;strokeWidth=3;comic=1;fontStyle=1;exitX=1;exitY=0.25;exitDx=0;exitDy=0;" parent="142" edge="1">
                    <mxGeometry width="50" height="50" relative="1" as="geometry">
                        <mxPoint x="90" y="37.91999999999989" as="sourcePoint"/>
                        <mxPoint x="142" y="39" as="targetPoint"/>
                    </mxGeometry>
                </mxCell>
                <mxCell id="133" value="" style="endArrow=none;html=1;fontFamily=Comic Sans MS;fontSize=24;fontColor=#000000;strokeColor=#000000;strokeWidth=3;comic=1;fontStyle=1;exitX=1;exitY=0.25;exitDx=0;exitDy=0;" parent="142" edge="1">
                    <mxGeometry width="50" height="50" relative="1" as="geometry">
                        <mxPoint y="15.8" as="sourcePoint"/>
                        <mxPoint x="42" y="15.8" as="targetPoint"/>
                    </mxGeometry>
                </mxCell>
                <mxCell id="136" value="" style="endArrow=none;html=1;fontFamily=Comic Sans MS;fontSize=24;fontColor=#000000;strokeColor=#000000;strokeWidth=3;comic=1;fontStyle=1;exitX=1;exitY=0.25;exitDx=0;exitDy=0;" parent="142" edge="1">
                    <mxGeometry width="50" height="50" relative="1" as="geometry">
                        <mxPoint y="61" as="sourcePoint"/>
                        <mxPoint x="42" y="61" as="targetPoint"/>
                    </mxGeometry>
                </mxCell>
                <mxCell id="276" value="&lt;font style=&quot;font-size: 14px;&quot; color=&quot;#0000ff&quot;&gt;&lt;span style=&quot;&quot;&gt;WriteReg&lt;sub&gt;4:0&lt;/sub&gt;&lt;/span&gt;&lt;/font&gt;" style="text;html=1;strokeColor=none;fillColor=none;align=center;verticalAlign=middle;whiteSpace=wrap;rounded=0;comic=1;strokeWidth=4;fontFamily=Comic Sans MS;fontSize=22;fontColor=#000000;fontStyle=1" parent="125" vertex="1">
                    <mxGeometry x="109" y="19.00000000000003" width="40" height="8" as="geometry"/>
                </mxCell>
                <mxCell id="141" value="" style="endArrow=none;html=1;fontFamily=Comic Sans MS;fontSize=24;fontColor=#000000;strokeColor=#000000;strokeWidth=3;comic=1;fontStyle=1;exitX=0;exitY=0.662;exitDx=0;exitDy=0;exitPerimeter=0;" parent="169" edge="1">
                    <mxGeometry width="50" height="50" relative="1" as="geometry">
                        <mxPoint x="57.99800000000022" y="21" as="sourcePoint"/>
                        <mxPoint x="58.450000000000216" as="targetPoint"/>
                    </mxGeometry>
                </mxCell>
                <mxCell id="222" value="" style="endArrow=none;html=1;fontFamily=Comic Sans MS;fontSize=24;fontColor=#0000FF;strokeColor=#0000FF;strokeWidth=3;comic=1;fontStyle=1" parent="278" edge="1">
                    <mxGeometry width="50" height="50" relative="1" as="geometry">
                        <mxPoint x="59" y="64" as="sourcePoint"/>
                        <mxPoint x="61" y="-153" as="targetPoint"/>
                        <Array as="points">
                            <mxPoint x="51" y="53"/>
                            <mxPoint x="60" y="41"/>
                            <mxPoint x="61" y="20"/>
                            <mxPoint x="52" y="13"/>
                            <mxPoint x="59"/>
                        </Array>
                    </mxGeometry>
                </mxCell>
                <mxCell id="279" value="&lt;font color=&quot;#0000ff&quot;&gt;&lt;span style=&quot;font-size: 14px;&quot;&gt;SignImm&lt;/span&gt;&lt;/font&gt;" style="text;html=1;strokeColor=none;fillColor=none;align=center;verticalAlign=middle;whiteSpace=wrap;rounded=0;comic=1;strokeWidth=4;fontFamily=Comic Sans MS;fontSize=22;fontColor=#000000;fontStyle=1" parent="1" vertex="1">
                    <mxGeometry x="603" y="467" width="40" height="8" as="geometry"/>
                </mxCell>
                <mxCell id="285" value="&lt;font color=&quot;#0000ff&quot;&gt;&lt;span style=&quot;font-size: 14px;&quot;&gt;Result&lt;/span&gt;&lt;/font&gt;" style="text;html=1;strokeColor=none;fillColor=none;align=center;verticalAlign=middle;whiteSpace=wrap;rounded=0;comic=1;strokeWidth=4;fontFamily=Comic Sans MS;fontSize=22;fontColor=#000000;fontStyle=1" parent="1" vertex="1">
                    <mxGeometry x="1145" y="532.42" width="40" height="8" as="geometry"/>
                </mxCell>
                <mxCell id="289" value="&lt;font style=&quot;font-size: 20px;&quot; color=&quot;#0000ff&quot;&gt;RegWrite&lt;/font&gt;" style="text;html=1;strokeColor=none;fillColor=none;align=center;verticalAlign=middle;whiteSpace=wrap;rounded=0;comic=1;strokeWidth=4;fontFamily=Comic Sans MS;fontSize=22;fontColor=#000000;fontStyle=1;rotation=-90;" parent="1" vertex="1">
                    <mxGeometry x="480" y="72.00000000000003" width="40" height="8" as="geometry"/>
                </mxCell>
                <mxCell id="290" value="&lt;font style=&quot;font-size: 20px;&quot; color=&quot;#0000ff&quot;&gt;RegDst&lt;/font&gt;" style="text;html=1;strokeColor=none;fillColor=none;align=center;verticalAlign=middle;whiteSpace=wrap;rounded=0;comic=1;strokeWidth=4;fontFamily=Comic Sans MS;fontSize=22;fontColor=#000000;fontStyle=1;rotation=-90;" parent="1" vertex="1">
                    <mxGeometry x="220" y="84.00000000000003" width="40" height="8" as="geometry"/>
                </mxCell>
                <mxCell id="291" value="&lt;font style=&quot;font-size: 20px;&quot; color=&quot;#0000ff&quot;&gt;ALUSrc&lt;/font&gt;" style="text;html=1;strokeColor=none;fillColor=none;align=center;verticalAlign=middle;whiteSpace=wrap;rounded=0;comic=1;strokeWidth=4;fontFamily=Comic Sans MS;fontSize=22;fontColor=#000000;fontStyle=1;rotation=-90;" parent="1" vertex="1">
                    <mxGeometry x="696" y="76.00000000000003" width="40" height="8" as="geometry"/>
                </mxCell>
                <mxCell id="292" value="&lt;font style=&quot;font-size: 20px;&quot; color=&quot;#0000ff&quot;&gt;ALUControl&lt;sub&gt;3:0&lt;/sub&gt;&lt;/font&gt;" style="text;html=1;strokeColor=none;fillColor=none;align=center;verticalAlign=middle;whiteSpace=wrap;rounded=0;comic=1;strokeWidth=4;fontFamily=Comic Sans MS;fontSize=22;fontColor=#000000;fontStyle=1;rotation=-90;" parent="1" vertex="1">
                    <mxGeometry x="894" y="56" width="40" height="8" as="geometry"/>
                </mxCell>
                <mxCell id="296" value="&lt;font style=&quot;font-size: 20px;&quot; color=&quot;#0000ff&quot;&gt;MemToReg&lt;/font&gt;" style="text;html=1;strokeColor=none;fillColor=none;align=center;verticalAlign=middle;whiteSpace=wrap;rounded=0;comic=1;strokeWidth=4;fontFamily=Comic Sans MS;fontSize=22;fontColor=#000000;fontStyle=1;rotation=-90;" parent="1" vertex="1">
                    <mxGeometry x="1111" y="72.00000000000003" width="40" height="8" as="geometry"/>
                </mxCell>
                <mxCell id="300" value="&lt;font style=&quot;font-size: 20px;&quot; color=&quot;#0000ff&quot;&gt;ReadData&lt;sub&gt;31:0&lt;/sub&gt;&lt;/font&gt;" style="text;html=1;strokeColor=none;fillColor=none;align=center;verticalAlign=middle;whiteSpace=wrap;rounded=0;comic=1;strokeWidth=4;fontFamily=Comic Sans MS;fontSize=22;fontColor=#000000;fontStyle=1;rotation=-90;" parent="1" vertex="1">
                    <mxGeometry x="1054" y="64.00000000000003" width="40" height="8" as="geometry"/>
                </mxCell>
                <mxCell id="301" value="" style="endArrow=none;html=1;fontFamily=Comic Sans MS;fontSize=24;fontColor=#0000FF;strokeColor=#0000FF;strokeWidth=3;comic=1;fontStyle=1" parent="1" edge="1">
                    <mxGeometry width="50" height="50" relative="1" as="geometry">
                        <mxPoint x="1085" y="241" as="sourcePoint"/>
                        <mxPoint x="1088" y="-8" as="targetPoint"/>
                    </mxGeometry>
                </mxCell>
                <mxCell id="303" value="" style="endArrow=none;html=1;fontFamily=Comic Sans MS;fontSize=24;fontColor=#0000FF;strokeColor=#0000FF;strokeWidth=3;comic=1;fontStyle=1" parent="1" edge="1">
                    <mxGeometry width="50" height="50" relative="1" as="geometry">
                        <mxPoint x="1048" y="284" as="sourcePoint"/>
                        <mxPoint x="1051" y="-7" as="targetPoint"/>
                    </mxGeometry>
                </mxCell>
                <mxCell id="304" value="&lt;font style=&quot;font-size: 20px;&quot; color=&quot;#0000ff&quot;&gt;ALUResult&lt;sub&gt;31:0&lt;/sub&gt;&lt;/font&gt;" style="text;html=1;strokeColor=none;fillColor=none;align=center;verticalAlign=middle;whiteSpace=wrap;rounded=0;comic=1;strokeWidth=4;fontFamily=Comic Sans MS;fontSize=22;fontColor=#000000;fontStyle=1;rotation=-90;" parent="1" vertex="1">
                    <mxGeometry x="1025.5" y="60.5" width="25" height="8" as="geometry"/>
                </mxCell>
                <mxCell id="305" value="" style="endArrow=none;html=1;fontFamily=Comic Sans MS;fontSize=24;fontColor=#0000FF;strokeColor=#0000FF;strokeWidth=3;comic=1;fontStyle=1" parent="1" edge="1">
                    <mxGeometry width="50" height="50" relative="1" as="geometry">
                        <mxPoint x="668" y="270" as="sourcePoint"/>
                        <mxPoint x="673" y="-3" as="targetPoint"/>
                        <Array as="points">
                            <mxPoint x="669" y="230"/>
                            <mxPoint x="665" y="229"/>
                            <mxPoint x="662" y="225"/>
                            <mxPoint x="664" y="220"/>
                            <mxPoint x="669" y="215"/>
                        </Array>
                    </mxGeometry>
                </mxCell>
                <mxCell id="306" value="&lt;font style=&quot;font-size: 20px;&quot; color=&quot;#0000ff&quot;&gt;WriteData&lt;sub&gt;31:0&lt;/sub&gt;&lt;/font&gt;" style="text;html=1;strokeColor=none;fillColor=none;align=center;verticalAlign=middle;whiteSpace=wrap;rounded=0;comic=1;strokeWidth=4;fontFamily=Comic Sans MS;fontSize=22;fontColor=#000000;fontStyle=1;rotation=-90;" parent="1" vertex="1">
                    <mxGeometry x="639" y="56.00000000000003" width="40" height="8" as="geometry"/>
                </mxCell>
                <mxCell id="241" value="" style="endArrow=none;html=1;fontFamily=Comic Sans MS;fontSize=24;fontColor=#0000FF;strokeColor=#0000FF;strokeWidth=3;comic=1;fontStyle=1" parent="1" edge="1">
                    <mxGeometry width="50" height="50" relative="1" as="geometry">
                        <mxPoint x="140" y="313" as="sourcePoint"/>
                        <mxPoint x="194" y="313" as="targetPoint"/>
                        <Array as="points"/>
                    </mxGeometry>
                </mxCell>
                <mxCell id="314" value="" style="group" parent="1" vertex="1" connectable="0">
                    <mxGeometry x="-21" y="-271" width="222" height="224" as="geometry"/>
                </mxCell>
                <mxCell id="2" value="&lt;pre&gt;&lt;span style=&quot;font-size: 24px;&quot;&gt;&lt;font face=&quot;Comic Sans MS&quot; style=&quot;font-size: 24px;&quot;&gt;Instruction&lt;br&gt;Memory&lt;/font&gt;&lt;/span&gt;&lt;/pre&gt;" style="whiteSpace=wrap;html=1;fillColor=none;strokeColor=#000000;strokeWidth=4;imageAspect=0;comic=1;enumerate=0;treeMoving=0;treeFolding=0;resizeHeight=1;resizeWidth=1;autosize=0;perimeter=parallelogramPerimeter;fontFamily=Comic Sans MS;fontColor=#000000;verticalAlign=bottom;fontStyle=1" parent="314" vertex="1">
                    <mxGeometry x="39" width="144" height="224" as="geometry"/>
                </mxCell>
                <mxCell id="30" value="" style="endArrow=none;html=1;fontFamily=Comic Sans MS;fontSize=24;fontColor=#000000;strokeColor=#000000;strokeWidth=3;comic=1;fontStyle=1" parent="314" edge="1">
                    <mxGeometry width="50" height="50" relative="1" as="geometry">
                        <mxPoint x="194" y="116.00000000000011" as="sourcePoint"/>
                        <mxPoint x="206" y="104" as="targetPoint"/>
                    </mxGeometry>
                </mxCell>
                <mxCell id="34" value="32" style="text;html=1;strokeColor=none;fillColor=none;align=center;verticalAlign=middle;whiteSpace=wrap;rounded=0;comic=1;strokeWidth=4;fontFamily=Comic Sans MS;fontSize=17;fontColor=#000000;fontStyle=1" parent="314" vertex="1">
                    <mxGeometry x="194" y="116" width="16" height="8" as="geometry"/>
                </mxCell>
                <mxCell id="80" value="rd" style="text;html=1;strokeColor=none;fillColor=none;align=center;verticalAlign=middle;whiteSpace=wrap;rounded=0;comic=1;strokeWidth=4;fontFamily=Comic Sans MS;fontSize=22;fontColor=#000000;fontStyle=1" parent="314" vertex="1">
                    <mxGeometry x="143" y="105.33999999999997" width="40" height="8" as="geometry"/>
                </mxCell>
                <mxCell id="81" value="a" style="text;html=1;strokeColor=none;fillColor=none;align=center;verticalAlign=middle;whiteSpace=wrap;rounded=0;comic=1;strokeWidth=4;fontFamily=Comic Sans MS;fontSize=22;fontColor=#000000;fontStyle=1" parent="314" vertex="1">
                    <mxGeometry x="39" y="104" width="40" height="8" as="geometry"/>
                </mxCell>
                <mxCell id="310" value="" style="endArrow=none;html=1;fontFamily=Comic Sans MS;fontSize=24;fontColor=#000000;strokeColor=#000000;strokeWidth=3;comic=1;fontStyle=1" parent="314" edge="1">
                    <mxGeometry width="50" height="50" relative="1" as="geometry">
                        <mxPoint x="183" y="109" as="sourcePoint"/>
                        <mxPoint x="222" y="109" as="targetPoint"/>
                    </mxGeometry>
                </mxCell>
                <mxCell id="311" value="" style="endArrow=none;html=1;fontFamily=Comic Sans MS;fontSize=24;fontColor=#000000;strokeColor=#000000;strokeWidth=3;comic=1;fontStyle=1" parent="314" edge="1">
                    <mxGeometry width="50" height="50" relative="1" as="geometry">
                        <mxPoint x="11" y="117.34000000000012" as="sourcePoint"/>
                        <mxPoint x="23" y="105.34" as="targetPoint"/>
                    </mxGeometry>
                </mxCell>
                <mxCell id="312" value="32" style="text;html=1;strokeColor=none;fillColor=none;align=center;verticalAlign=middle;whiteSpace=wrap;rounded=0;comic=1;strokeWidth=4;fontFamily=Comic Sans MS;fontSize=17;fontColor=#000000;fontStyle=1" parent="314" vertex="1">
                    <mxGeometry x="11" y="117.34" width="16" height="8" as="geometry"/>
                </mxCell>
                <mxCell id="313" value="" style="endArrow=none;html=1;fontFamily=Comic Sans MS;fontSize=24;fontColor=#000000;strokeColor=#000000;strokeWidth=3;comic=1;fontStyle=1" parent="314" edge="1">
                    <mxGeometry width="50" height="50" relative="1" as="geometry">
                        <mxPoint y="110.34" as="sourcePoint"/>
                        <mxPoint x="39" y="110.34" as="targetPoint"/>
                    </mxGeometry>
                </mxCell>
                <mxCell id="315" value="" style="group" parent="1" vertex="1" connectable="0">
                    <mxGeometry x="-137" y="68.00000000000003" width="206.710023174971" height="478.71002317497096" as="geometry"/>
                </mxCell>
                <mxCell id="85" value="" style="group" parent="315" vertex="1" connectable="0">
                    <mxGeometry y="139.99999999999997" width="200" height="144" as="geometry"/>
                </mxCell>
                <mxCell id="6" value="&lt;pre&gt;&lt;br&gt;&lt;/pre&gt;" style="whiteSpace=wrap;html=1;fillColor=none;strokeColor=#000000;strokeWidth=4;imageAspect=0;comic=1;enumerate=0;treeMoving=0;treeFolding=0;resizeHeight=1;resizeWidth=1;autosize=0;perimeter=parallelogramPerimeter;fontFamily=Comic Sans MS;fontColor=#000000;verticalAlign=bottom;fontStyle=1" parent="85" vertex="1">
                    <mxGeometry x="72" y="40.17612977983771" width="56" height="103.82387022016226" as="geometry"/>
                </mxCell>
                <mxCell id="23" value="" style="endArrow=none;html=1;fontFamily=Comic Sans MS;fontSize=24;fontColor=#000000;strokeColor=#000000;strokeWidth=3;comic=1;exitX=0.307;exitY=0.006;exitDx=0;exitDy=0;exitPerimeter=0;fontStyle=1" parent="85" edge="1">
                    <mxGeometry width="50" height="50" relative="1" as="geometry">
                        <mxPoint x="99.38800000000003" y="40.17983777520284" as="sourcePoint"/>
                        <mxPoint x="100.62" as="targetPoint"/>
                    </mxGeometry>
                </mxCell>
                <mxCell id="24" value="" style="endArrow=none;html=1;fontFamily=Comic Sans MS;fontSize=24;fontColor=#000000;strokeColor=#000000;strokeWidth=3;comic=1;fontStyle=1" parent="85" edge="1">
                    <mxGeometry width="50" height="50" relative="1" as="geometry">
                        <mxPoint x="128" y="91.62456546929315" as="sourcePoint"/>
                        <mxPoint x="184" y="91.62456546929315" as="targetPoint"/>
                    </mxGeometry>
                </mxCell>
                <mxCell id="25" value="" style="endArrow=none;html=1;fontFamily=Comic Sans MS;fontSize=24;fontColor=#000000;strokeColor=#000000;strokeWidth=3;comic=1;fontStyle=1" parent="85" edge="1">
                    <mxGeometry width="50" height="50" relative="1" as="geometry">
                        <mxPoint x="16" y="91.62456546929315" as="sourcePoint"/>
                        <mxPoint x="72" y="91.62456546929315" as="targetPoint"/>
                    </mxGeometry>
                </mxCell>
                <mxCell id="26" value="" style="endArrow=none;html=1;fontFamily=Comic Sans MS;fontSize=24;fontColor=#000000;strokeColor=#000000;strokeWidth=3;comic=1;fontStyle=1" parent="85" edge="1">
                    <mxGeometry width="50" height="50" relative="1" as="geometry">
                        <mxPoint x="86" y="40.17612977983771" as="sourcePoint"/>
                        <mxPoint x="114" y="40.17612977983771" as="targetPoint"/>
                        <Array as="points">
                            <mxPoint x="100" y="53.154113557357995"/>
                        </Array>
                    </mxGeometry>
                </mxCell>
                <mxCell id="55" value="" style="endArrow=none;html=1;fontFamily=Comic Sans MS;fontSize=24;fontColor=#000000;strokeColor=#000000;strokeWidth=3;comic=1;fontStyle=1" parent="85" edge="1">
                    <mxGeometry width="50" height="50" relative="1" as="geometry">
                        <mxPoint x="144" y="99.50405561993055" as="sourcePoint"/>
                        <mxPoint x="156" y="84.67207415990728" as="targetPoint"/>
                    </mxGeometry>
                </mxCell>
                <mxCell id="56" value="32" style="text;html=1;strokeColor=none;fillColor=none;align=center;verticalAlign=middle;whiteSpace=wrap;rounded=0;comic=1;strokeWidth=4;fontFamily=Comic Sans MS;fontSize=17;fontColor=#000000;fontStyle=1" parent="85" vertex="1">
                    <mxGeometry x="144" y="99.50405561993045" width="16" height="7.41599073001159" as="geometry"/>
                </mxCell>
                <mxCell id="57" value="" style="endArrow=none;html=1;fontFamily=Comic Sans MS;fontSize=24;fontColor=#000000;strokeColor=#000000;strokeWidth=3;comic=1;fontStyle=1" parent="85" edge="1">
                    <mxGeometry width="50" height="50" relative="1" as="geometry">
                        <mxPoint x="40" y="99.50405561993055" as="sourcePoint"/>
                        <mxPoint x="52" y="84.67207415990728" as="targetPoint"/>
                    </mxGeometry>
                </mxCell>
                <mxCell id="58" value="32" style="text;html=1;strokeColor=none;fillColor=none;align=center;verticalAlign=middle;whiteSpace=wrap;rounded=0;comic=1;strokeWidth=4;fontFamily=Comic Sans MS;fontSize=17;fontColor=#000000;fontStyle=1" parent="85" vertex="1">
                    <mxGeometry x="40" y="99.50405561993045" width="16" height="7.41599073001159" as="geometry"/>
                </mxCell>
                <mxCell id="64" value="CLK" style="text;html=1;strokeColor=none;fillColor=none;align=center;verticalAlign=middle;whiteSpace=wrap;rounded=0;comic=1;strokeWidth=4;fontFamily=Comic Sans MS;fontSize=17;fontColor=#000000;fontStyle=1" parent="85" vertex="1">
                    <mxGeometry x="56" y="14.831981460023101" width="40" height="7.41599073001159" as="geometry"/>
                </mxCell>
                <mxCell id="82" value="PC" style="text;html=1;strokeColor=none;fillColor=none;align=center;verticalAlign=middle;whiteSpace=wrap;rounded=0;comic=1;strokeWidth=4;fontFamily=Comic Sans MS;fontSize=22;fontColor=#000000;fontStyle=1" parent="85" vertex="1">
                    <mxGeometry x="144" y="68.28990730011581" width="40" height="7.41599073001159" as="geometry"/>
                </mxCell>
                <mxCell id="83" value="PC'" style="text;html=1;strokeColor=none;fillColor=none;align=center;verticalAlign=middle;whiteSpace=wrap;rounded=0;comic=1;strokeWidth=4;fontFamily=Comic Sans MS;fontSize=22;fontColor=#000000;fontStyle=1" parent="85" vertex="1">
                    <mxGeometry y="74.15990730011582" width="40" height="7.41599073001159" as="geometry"/>
                </mxCell>
                <mxCell id="265" value="" style="endArrow=none;html=1;fontFamily=Comic Sans MS;fontSize=24;fontColor=#0000FF;strokeColor=#0000FF;strokeWidth=3;comic=1;fontStyle=1" parent="85" edge="1">
                    <mxGeometry width="50" height="50" relative="1" as="geometry">
                        <mxPoint x="16" y="90" as="sourcePoint"/>
                        <mxPoint x="157" y="337" as="targetPoint"/>
                        <Array as="points">
                            <mxPoint x="15" y="337"/>
                        </Array>
                    </mxGeometry>
                </mxCell>
                <mxCell id="124" value="" style="group;rotation=90;" parent="315" vertex="1" connectable="0">
                    <mxGeometry x="81" y="353" width="148" height="103.42004634994204" as="geometry"/>
                </mxCell>
                <mxCell id="92" value="&lt;b&gt;&lt;font style=&quot;font-size: 34px;&quot;&gt;+&lt;/font&gt;&lt;/b&gt;" style="shape=loopLimit;whiteSpace=wrap;html=1;comic=1;strokeColor=#000000;strokeWidth=4;fontFamily=Comic Sans MS;fontSize=22;fontColor=#000000;fillColor=none;rotation=180;" parent="124" vertex="1">
                    <mxGeometry x="26" y="16" width="96" height="64" as="geometry"/>
                </mxCell>
                <mxCell id="112" value="" style="endArrow=none;html=1;fontFamily=Comic Sans MS;fontSize=24;fontColor=#000000;strokeColor=#000000;strokeWidth=3;comic=1;fontStyle=1;exitX=1;exitY=0.25;exitDx=0;exitDy=0;" parent="124" edge="1">
                    <mxGeometry width="50" height="50" relative="1" as="geometry">
                        <mxPoint x="76" y="80" as="sourcePoint"/>
                        <mxPoint x="76" y="122" as="targetPoint"/>
                    </mxGeometry>
                </mxCell>
                <mxCell id="113" value="" style="endArrow=none;html=1;fontFamily=Comic Sans MS;fontSize=24;fontColor=#000000;strokeColor=#000000;strokeWidth=3;comic=1;fontStyle=1" parent="124" edge="1">
                    <mxGeometry width="50" height="50" relative="1" as="geometry">
                        <mxPoint x="70" y="92" as="sourcePoint"/>
                        <mxPoint x="82" y="104" as="targetPoint"/>
                    </mxGeometry>
                </mxCell>
                <mxCell id="118" value="" style="endArrow=none;html=1;fontFamily=Comic Sans MS;fontSize=24;fontColor=#000000;strokeColor=#000000;strokeWidth=3;comic=1;fontStyle=1;exitX=1;exitY=0.25;exitDx=0;exitDy=0;" parent="124" edge="1">
                    <mxGeometry width="50" height="50" relative="1" as="geometry">
                        <mxPoint x="105" y="-26" as="sourcePoint"/>
                        <mxPoint x="105" y="16" as="targetPoint"/>
                    </mxGeometry>
                </mxCell>
                <mxCell id="119" value="" style="endArrow=none;html=1;fontFamily=Comic Sans MS;fontSize=24;fontColor=#000000;strokeColor=#000000;strokeWidth=3;comic=1;fontStyle=1" parent="124" edge="1">
                    <mxGeometry width="50" height="50" relative="1" as="geometry">
                        <mxPoint x="99" y="-14" as="sourcePoint"/>
                        <mxPoint x="111" y="-2" as="targetPoint"/>
                    </mxGeometry>
                </mxCell>
                <mxCell id="121" value="" style="endArrow=none;html=1;fontFamily=Comic Sans MS;fontSize=24;fontColor=#000000;strokeColor=#000000;strokeWidth=3;comic=1;fontStyle=1;exitX=1;exitY=0.25;exitDx=0;exitDy=0;" parent="124" edge="1">
                    <mxGeometry width="50" height="50" relative="1" as="geometry">
                        <mxPoint x="46" y="-26" as="sourcePoint"/>
                        <mxPoint x="46" y="16" as="targetPoint"/>
                    </mxGeometry>
                </mxCell>
                <mxCell id="122" value="" style="endArrow=none;html=1;fontFamily=Comic Sans MS;fontSize=24;fontColor=#000000;strokeColor=#000000;strokeWidth=3;comic=1;fontStyle=1" parent="124" edge="1">
                    <mxGeometry width="50" height="50" relative="1" as="geometry">
                        <mxPoint x="40" y="-14" as="sourcePoint"/>
                        <mxPoint x="52" y="-2" as="targetPoint"/>
                    </mxGeometry>
                </mxCell>
                <mxCell id="257" value="32" style="text;html=1;strokeColor=none;fillColor=none;align=center;verticalAlign=middle;whiteSpace=wrap;rounded=0;comic=1;strokeWidth=4;fontFamily=Comic Sans MS;fontSize=17;fontColor=#000000;fontStyle=1" parent="124" vertex="1">
                    <mxGeometry x="86" y="96.00405561993045" width="16" height="7.41599073001159" as="geometry"/>
                </mxCell>
                <mxCell id="258" value="32" style="text;html=1;strokeColor=none;fillColor=none;align=center;verticalAlign=middle;whiteSpace=wrap;rounded=0;comic=1;strokeWidth=4;fontFamily=Comic Sans MS;fontSize=17;fontColor=#000000;fontStyle=1" parent="124" vertex="1">
                    <mxGeometry x="84" y="0.004055619930454668" width="16" height="7.41599073001159" as="geometry"/>
                </mxCell>
                <mxCell id="259" value="32" style="text;html=1;strokeColor=none;fillColor=none;align=center;verticalAlign=middle;whiteSpace=wrap;rounded=0;comic=1;strokeWidth=4;fontFamily=Comic Sans MS;fontSize=17;fontColor=#000000;fontStyle=1" parent="124" vertex="1">
                    <mxGeometry x="26" y="0.004055619930454668" width="16" height="7.41599073001159" as="geometry"/>
                </mxCell>
                <mxCell id="260" value="v1" style="text;html=1;strokeColor=none;fillColor=none;align=center;verticalAlign=middle;whiteSpace=wrap;rounded=0;comic=1;strokeWidth=4;fontFamily=Comic Sans MS;fontSize=17;fontColor=#000000;fontStyle=1" parent="124" vertex="1">
                    <mxGeometry x="38" y="19.004055619930455" width="16" height="7.41599073001159" as="geometry"/>
                </mxCell>
                <mxCell id="262" value="v2" style="text;html=1;strokeColor=none;fillColor=none;align=center;verticalAlign=middle;whiteSpace=wrap;rounded=0;comic=1;strokeWidth=4;fontFamily=Comic Sans MS;fontSize=17;fontColor=#000000;fontStyle=1" parent="124" vertex="1">
                    <mxGeometry x="96" y="21.004055619930455" width="16" height="7.41599073001159" as="geometry"/>
                </mxCell>
                <mxCell id="263" value="vr" style="text;html=1;strokeColor=none;fillColor=none;align=center;verticalAlign=middle;whiteSpace=wrap;rounded=0;comic=1;strokeWidth=4;fontFamily=Comic Sans MS;fontSize=17;fontColor=#000000;fontStyle=1" parent="124" vertex="1">
                    <mxGeometry x="66" y="63.004055619930455" width="16" height="7.41599073001159" as="geometry"/>
                </mxCell>
                <mxCell id="266" value="&lt;font color=&quot;#0000ff&quot; style=&quot;font-size: 21px;&quot;&gt;4&lt;/font&gt;" style="text;html=1;strokeColor=none;fillColor=none;align=center;verticalAlign=middle;whiteSpace=wrap;rounded=0;comic=1;strokeWidth=4;fontFamily=Comic Sans MS;fontSize=17;fontColor=#000000;fontStyle=1" parent="315" vertex="1">
                    <mxGeometry x="121" y="312.00405561993045" width="16" height="7.41599073001159" as="geometry"/>
                </mxCell>
                <mxCell id="297" value="" style="endArrow=none;html=1;fontFamily=Comic Sans MS;fontSize=24;fontColor=#0000FF;strokeColor=#0000FF;strokeWidth=3;comic=1;fontStyle=1" parent="315" edge="1">
                    <mxGeometry width="50" height="50" relative="1" as="geometry">
                        <mxPoint x="100" y="140.99999999999997" as="sourcePoint"/>
                        <mxPoint x="101" y="3.9999999999999716" as="targetPoint"/>
                    </mxGeometry>
                </mxCell>
                <mxCell id="299" value="&lt;font color=&quot;#0000ff&quot;&gt;&lt;span style=&quot;font-size: 20px;&quot;&gt;CLK&lt;/span&gt;&lt;/font&gt;" style="text;html=1;strokeColor=none;fillColor=none;align=center;verticalAlign=middle;whiteSpace=wrap;rounded=0;comic=1;strokeWidth=4;fontFamily=Comic Sans MS;fontSize=22;fontColor=#000000;fontStyle=1;rotation=-90;" parent="315" vertex="1">
                    <mxGeometry x="65" y="30" width="40" height="8" as="geometry"/>
                </mxCell>
                <mxCell id="264" value="" style="endArrow=none;html=1;fontFamily=Comic Sans MS;fontSize=24;fontColor=#0000FF;strokeColor=#0000FF;strokeWidth=3;comic=1;fontStyle=1" parent="315" edge="1">
                    <mxGeometry width="50" height="50" relative="1" as="geometry">
                        <mxPoint x="186" y="-4.000000000000028" as="sourcePoint"/>
                        <mxPoint x="186" y="328" as="targetPoint"/>
                        <Array as="points"/>
                    </mxGeometry>
                </mxCell>
                <mxCell id="319" value="&lt;font style=&quot;font-size: 20px;&quot; color=&quot;#0000ff&quot;&gt;PC&lt;sub&gt;31:0&lt;/sub&gt;&lt;/font&gt;" style="text;html=1;strokeColor=none;fillColor=none;align=center;verticalAlign=middle;whiteSpace=wrap;rounded=0;comic=1;strokeWidth=4;fontFamily=Comic Sans MS;fontSize=22;fontColor=#000000;fontStyle=1;rotation=-90;" parent="315" vertex="1">
                    <mxGeometry x="152" y="22" width="40" height="8" as="geometry"/>
                </mxCell>
                <mxCell id="320" value="" style="endArrow=none;html=1;fontFamily=Comic Sans MS;fontSize=24;fontColor=#0000FF;strokeColor=#0000FF;strokeWidth=3;comic=1;fontStyle=1" parent="315" edge="1">
                    <mxGeometry width="50" height="50" relative="1" as="geometry">
                        <mxPoint x="87" y="628" as="sourcePoint"/>
                        <mxPoint x="90.41" y="284" as="targetPoint"/>
                        <Array as="points">
                            <mxPoint x="89" y="485"/>
                            <mxPoint x="83" y="477"/>
                            <mxPoint x="88" y="465"/>
                        </Array>
                    </mxGeometry>
                </mxCell>
                <mxCell id="317" value="&lt;font style=&quot;font-size: 20px;&quot; color=&quot;#0000ff&quot;&gt;Instr&lt;sub&gt;31:0&lt;/sub&gt;&lt;/font&gt;" style="text;html=1;strokeColor=none;fillColor=none;align=center;verticalAlign=middle;whiteSpace=wrap;rounded=0;comic=1;strokeWidth=4;fontFamily=Comic Sans MS;fontSize=22;fontColor=#000000;fontStyle=1;rotation=-90;" parent="1" vertex="1">
                    <mxGeometry x="103" y="84.00000000000003" width="40" height="8" as="geometry"/>
                </mxCell>
                <mxCell id="269" value="&lt;font color=&quot;#0000ff&quot; style=&quot;font-size: 20px;&quot;&gt;PCPlus4&lt;/font&gt;" style="text;html=1;strokeColor=none;fillColor=none;align=center;verticalAlign=middle;whiteSpace=wrap;rounded=0;comic=1;strokeWidth=4;fontFamily=Comic Sans MS;fontSize=22;fontColor=#000000;fontStyle=1" parent="1" vertex="1">
                    <mxGeometry x="-8" y="554" width="40" height="8" as="geometry"/>
                </mxCell>
                <mxCell id="322" value="&lt;font style=&quot;font-size: 20px;&quot; color=&quot;#0000ff&quot;&gt;reset&lt;/font&gt;" style="text;html=1;strokeColor=none;fillColor=none;align=center;verticalAlign=middle;whiteSpace=wrap;rounded=0;comic=1;strokeWidth=4;fontFamily=Comic Sans MS;fontSize=22;fontColor=#000000;fontStyle=1;rotation=-90;" parent="1" vertex="1">
                    <mxGeometry x="-82" y="647" width="40" height="8" as="geometry"/>
                </mxCell>
                <mxCell id="323" value="" style="endArrow=none;html=1;fontFamily=Comic Sans MS;fontSize=24;fontColor=#0000FF;strokeColor=#0000FF;strokeWidth=3;comic=1;fontStyle=1" parent="1" edge="1">
                    <mxGeometry width="50" height="50" relative="1" as="geometry">
                        <mxPoint x="-36" y="148" as="sourcePoint"/>
                        <mxPoint x="464" y="148" as="targetPoint"/>
                        <Array as="points">
                            <mxPoint x="42" y="145"/>
                            <mxPoint x="45" y="150"/>
                            <mxPoint x="49" y="151"/>
                            <mxPoint x="55" y="149"/>
                            <mxPoint x="58" y="145"/>
                            <mxPoint x="131" y="146"/>
                            <mxPoint x="140" y="152"/>
                            <mxPoint x="148" y="147"/>
                            <mxPoint x="245" y="148"/>
                            <mxPoint x="249" y="153"/>
                            <mxPoint x="255" y="154"/>
                            <mxPoint x="259" y="152"/>
                            <mxPoint x="263" y="148"/>
                            <mxPoint x="437" y="148"/>
                        </Array>
                    </mxGeometry>
                </mxCell>
                <mxCell id="326" value="" style="endArrow=none;html=1;fontFamily=Comic Sans MS;fontSize=24;fontColor=#0000FF;strokeColor=#0000FF;strokeWidth=3;comic=1;fontStyle=1" parent="1" edge="1">
                    <mxGeometry width="50" height="50" relative="1" as="geometry">
                        <mxPoint x="1010" y="228" as="sourcePoint"/>
                        <mxPoint x="1011" y="71" as="targetPoint"/>
                    </mxGeometry>
                </mxCell>
                <mxCell id="327" value="&lt;font style=&quot;font-size: 20px;&quot; color=&quot;#0000ff&quot;&gt;Zero&lt;/font&gt;" style="text;html=1;strokeColor=none;fillColor=none;align=center;verticalAlign=middle;whiteSpace=wrap;rounded=0;comic=1;strokeWidth=4;fontFamily=Comic Sans MS;fontSize=22;fontColor=#000000;fontStyle=1;rotation=-90;" parent="1" vertex="1">
                    <mxGeometry x="978" y="95.00000000000003" width="40" height="8" as="geometry"/>
                </mxCell>
            </root>
        </mxGraphModel>
    </diagram>
</mxfile>